<?xml version="1.0" encoding="UTF-8" standalone="no"?>
<svg
   xmlns:dc="http://purl.org/dc/elements/1.1/"
   xmlns:cc="http://creativecommons.org/ns#"
   xmlns:rdf="http://www.w3.org/1999/02/22-rdf-syntax-ns#"
   xmlns:svg="http://www.w3.org/2000/svg"
   xmlns="http://www.w3.org/2000/svg"
   xmlns:sodipodi="http://sodipodi.sourceforge.net/DTD/sodipodi-0.dtd"
   xmlns:inkscape="http://www.inkscape.org/namespaces/inkscape"
   width="399.74008mm"
   height="211.66667mm"
   viewBox="0 0 399.74008 211.66667"
   version="1.1"
   id="svg196"
   inkscape:version="1.0.2 (e86c870879, 2021-01-15)"
   sodipodi:docname="logo_white.svg">
  <defs
     id="defs190">
    <clipPath
       clipPathUnits="userSpaceOnUse"
       id="clipPath64">
      <path
         d="M 0,-2.868931e-5 H 595.276 V 841.88997 H 0 Z"
         id="path62" />
    </clipPath>
  </defs>
  <sodipodi:namedview
     id="base"
     pagecolor="#ffffff"
     bordercolor="#666666"
     borderopacity="1.0"
     inkscape:pageopacity="0.0"
     inkscape:pageshadow="2"
     inkscape:zoom="0.35"
     inkscape:cx="9.6996019"
     inkscape:cy="125.71453"
     inkscape:document-units="mm"
     inkscape:current-layer="layer1"
     inkscape:document-rotation="0"
     showgrid="false"
     fit-margin-top="0"
     fit-margin-left="0"
     fit-margin-right="0"
     fit-margin-bottom="0"
     inkscape:window-width="1920"
     inkscape:window-height="1136"
     inkscape:window-x="0"
     inkscape:window-y="0"
     inkscape:window-maximized="1" />
  <metadata
     id="metadata193">
    <rdf:RDF>
      <cc:Work
         rdf:about="">
        <dc:format>image/svg+xml</dc:format>
        <dc:type
           rdf:resource="http://purl.org/dc/dcmitype/StillImage" />
        <dc:title></dc:title>
      </cc:Work>
    </rdf:RDF>
  </metadata>
  <g
     inkscape:label="Layer 1"
     inkscape:groupmode="layer"
     id="layer1"
     transform="translate(-103.26698,-114.9047)">
    <g
       id="g344">
      <g
         id="g1726"
         transform="matrix(104.35997,0,0,104.40888,208.67055,220.78145)">
        <circle
           cx="0"
           cy="0"
           r="1"
           stroke="none"
           fill="none"
           id="circle1642" />
        <path
           d="M 0.95105652,-0.30901699 A 0.15906383,0.15906383 0 0 0 1,0 0.15780901,0.15780901 0 0 1 0.95105652,-0.30901699 Z"
           fill="#ffffff"
           id="path1644" />
        <path
           d="M 0.80901699,-0.58778525 A 0.32768329,0.32768329 0 0 0 1,0 0.3224021,0.3224021 0 0 1 0.80901699,-0.58778525 Z"
           fill="#ffffff"
           id="path1646" />
        <path
           d="M 0.58778525,-0.80901699 A 0.51626158,0.51626158 0 0 0 1,0 0.50327325,0.50327325 0 0 1 0.58778525,-0.80901699 Z"
           fill="#ffffff"
           id="path1648" />
        <path
           d="M 0.30901699,-0.95105652 A 0.74021594,0.74021594 0 0 0 1,0 0.71380303,0.71380303 0 0 1 0.30901699,-0.95105652 Z"
           fill="#ffffff"
           id="path1650" />
        <path
           d="M 0,-1 A 1.0259643,1.0259643 0 0 0 1,0 0.97591217,0.97591217 0 0 1 0,-1 Z"
           fill="#ffffff"
           id="path1652" />
        <path
           d="M -0.30901699,-0.95105652 A 1.4258811,1.4258811 0 0 0 1,0 1.3310079,1.3310079 0 0 1 -0.30901699,-0.95105652 Z"
           fill="#ffffff"
           id="path1654" />
        <path
           d="M -0.58778525,-0.80901699 A 2.0645312,2.0645312 0 0 0 1,0 1.8713939,1.8713939 0 0 1 -0.58778525,-0.80901699 Z"
           fill="#ffffff"
           id="path1656" />
        <path
           d="M -0.80901699,-0.58778525 A 3.3352968,3.3352968 0 0 0 1,0 2.8586704,2.8586704 0 0 1 -0.80901699,-0.58778525 Z"
           fill="#ffffff"
           id="path1658" />
        <path
           d="M -0.95105652,-0.30901699 A 7.4996157,7.4996157 0 0 0 1,0 5.454652,5.454652 0 0 1 -0.95105652,-0.30901699 Z"
           fill="#ffffff"
           id="path1660" />
        <path
           d="M 1,0 A 40.008333,40.008333 0 0 1 -1,0 40.008333,40.008333 0 0 1 1,0 Z"
           fill="#ffffff"
           id="path1662" />
        <path
           d="M -0.95105652,0.30901699 A 5.454652,5.454652 0 0 1 1,0 7.4996157,7.4996157 0 0 0 -0.95105652,0.30901699 Z"
           fill="#ffffff"
           id="path1664" />
        <path
           d="M -0.80901699,0.58778525 A 2.8586704,2.8586704 0 0 1 1,0 3.3352968,3.3352968 0 0 0 -0.80901699,0.58778525 Z"
           fill="#ffffff"
           id="path1666" />
        <path
           d="M -0.58778525,0.80901699 A 1.8713939,1.8713939 0 0 1 1,0 2.0645312,2.0645312 0 0 0 -0.58778525,0.80901699 Z"
           fill="#ffffff"
           id="path1668" />
        <path
           d="M -0.30901699,0.95105652 A 1.3310079,1.3310079 0 0 1 1,0 1.4258811,1.4258811 0 0 0 -0.30901699,0.95105652 Z"
           fill="#ffffff"
           id="path1670" />
        <path
           d="M 0,1 A 0.97591217,0.97591217 0 0 1 1,0 1.0259643,1.0259643 0 0 0 0,1 Z"
           fill="#ffffff"
           id="path1672" />
        <path
           d="M 0.30901699,0.95105652 A 0.71380303,0.71380303 0 0 1 1,0 0.74021594,0.74021594 0 0 0 0.30901699,0.95105652 Z"
           fill="#ffffff"
           id="path1674" />
        <path
           d="M 0.58778525,0.80901699 A 0.50327325,0.50327325 0 0 1 1,0 0.51626158,0.51626158 0 0 0 0.58778525,0.80901699 Z"
           fill="#ffffff"
           id="path1676" />
        <path
           d="M 0.80901699,0.58778525 A 0.3224021,0.3224021 0 0 1 1,0 0.32768329,0.32768329 0 0 0 0.80901699,0.58778525 Z"
           fill="#ffffff"
           id="path1678" />
        <path
           d="M 0.95105652,0.30901699 A 0.15780901,0.15780901 0 0 1 1,0 0.15906383,0.15906383 0 0 0 0.95105652,0.30901699 Z"
           fill="#ffffff"
           id="path1680" />
        <path
           d="M 1,0 A 0.18782323,0.18782323 0 0 0 0.62435354,0 0.18782323,0.18782323 0 0 0 1,0 V 0 A 0.19556982,0.19556982 0 1 1 0.60886037,0 0.19556981,0.19556981 0 1 1 1,0 Z"
           fill="#ffffff"
           id="path1682" />
        <path
           d="M 1,0 A 0.35260565,0.35260565 0 0 0 0.29478869,0 0.35260566,0.35260566 0 0 0 1,0 V 0 A 0.36410173,0.36410173 0 1 1 0.27179655,0 0.36410173,0.36410173 0 1 1 1,0 Z"
           fill="#ffffff"
           id="path1684" />
        <path
           d="M 1,0 A 0.51876205,0.51876205 0 0 0 -0.0375241,0 0.51876205,0.51876205 0 0 0 1,0 V 0 A 0.53123016,0.53123016 0 1 1 -0.06246031,0 0.53123016,0.53123016 0 1 1 1,0 Z"
           fill="#ffffff"
           id="path1686" />
        <path
           d="M 1,0 A 0.68630968,0.68630968 0 0 0 -0.37261936,0 0.68630968,0.68630968 0 0 0 1,0 V 0 A 0.69697256,0.69697256 0 1 1 -0.39394513,0 0.69697256,0.69697256 0 1 1 1,0 Z"
           fill="#ffffff"
           id="path1688" />
        <path
           d="M 1,0 A 0.85526609,0.85526609 0 0 0 -0.71053217,0 0.85526609,0.85526609 0 0 0 1,0 V 0 A 0.86134612,0.86134612 0 1 1 -0.72269223,0 0.86134612,0.86134612 0 1 1 1,0 Z"
           fill="#ffffff"
           id="path1690" />
        <circle
           cx="0"
           cy="0"
           r="1"
           stroke="#ffffff"
           stroke-width="0.02"
           fill="none"
           id="circle1692" />
      </g>
      <g
         id="g1075"
         transform="matrix(0.99746689,0,0,-0.9979344,338.39763,899.24229)">
        <g
           aria-label="RESEARCH STATION GEOM∃TRY + DYN∀MICS"
           transform="scale(1,-1)"
           id="text798-4"
           style="font-style:normal;font-variant:normal;font-weight:bold;font-stretch:normal;font-size:24.8453px;line-height:0;font-family:'Latin Modern Math';-inkscape-font-specification:'Latin Modern Math Bold';fill:#000000;fill-opacity:1;stroke:none;stroke-width:0.621135">
          <path
             id="path1139"
             style="font-style:normal;font-variant:normal;font-weight:bold;font-stretch:semi-condensed;line-height:1.1;font-family:'DejaVu Sans';-inkscape-font-specification:'DejaVu Sans Bold Semi-Condensed';stroke-width:0.621135"
             d="m 133.21869,-625.13596 v 3.83355 q -1.33446,-0.66723 -2.6204,-1.00691 -1.27381,-0.33968 -2.41417,-0.33968 -1.5043,0 -2.23219,0.46099 -0.71576,0.461 -0.71576,1.43152 0,0.72789 0.48526,1.14036 0.48526,0.40034 1.7712,0.6915 l 1.78333,0.40033 q 2.72959,0.60658 3.86995,1.84399 1.14036,1.23741 1.14036,3.51814 0,2.99647 -1.60136,4.46439 -1.58923,1.45577 -4.87686,1.45577 -1.55283,0 -3.1178,-0.32755 -1.55283,-0.32755 -3.11779,-0.97052 v -3.94273 q 1.56496,0.92199 3.02074,1.39512 1.45578,0.461 2.81451,0.461 1.37086,0 2.09875,-0.50953 0.74002,-0.50952 0.74002,-1.45577 0,-0.84921 -0.49739,-1.31021 -0.49739,-0.46099 -1.98957,-0.82494 l -1.62562,-0.40034 q -2.43843,-0.58231 -3.57879,-1.85612 -1.12823,-1.2738 -1.12823,-3.43321 0,-2.70532 1.5771,-4.1611 1.57709,-1.45578 4.51291,-1.45578 1.3466,0 2.76598,0.2305 1.41939,0.21836 2.93582,0.66723 z m -15.27355,16.54736 q -1.16462,0.66723 -2.4263,1.00691 -1.24954,0.33968 -2.60827,0.33968 -4.07618,0 -6.45395,-2.52335 -2.37778,-2.53548 -2.37778,-6.86642 0,-4.34308 2.37778,-6.86643 2.37777,-2.53548 6.45395,-2.53548 1.35873,0 2.60827,0.33968 1.26168,0.33968 2.4263,1.00692 v 3.74863 q -1.17675,-0.8856 -2.31711,-1.29807 -1.12823,-0.41247 -2.37778,-0.41247 -2.25645,0 -3.54239,1.60135 -1.28594,1.60136 -1.28594,4.41587 0,2.80237 1.28594,4.40373 1.28594,1.60136 3.54239,1.60136 1.24955,0 2.37778,-0.41247 1.14036,-0.41247 2.31711,-1.29807 z m -21.242244,-17.11754 h 4.209624 v 18.11232 h -4.209624 z m -22.249161,0 h 5.349989 l 3.712237,9.69306 3.7365,-9.69306 h 5.337858 v 18.11232 h -3.97913 v -13.24759 l -3.748632,9.76585 h -2.668929 l -3.748632,-9.76585 v 13.24759 h -3.991261 z m -7.400212,3.29977 1.019046,-3.29977 h 4.233891 l -6.041484,18.11232 h -5.010307 l -6.041484,-18.11232 h 4.22176 l 1.043308,3.29977 z m -5.531961,3.36042 2.244326,7.20611 2.220064,-7.20611 z m -23.074102,-6.66019 h 4.694888 l 5.932301,12.42265 v -12.42265 h 3.97913 v 18.11232 h -4.694888 l -5.92017,-12.42265 v 12.42265 H 38.44746 Z m -18.452004,0 h 4.597836 l 3.712237,6.45395 3.712238,-6.45395 h 4.609968 l -6.211326,10.48161 v 7.63071 h -4.209628 v -7.63071 z m -10.2753757,3.53026 v 11.0518 h 1.5043057 q 2.571876,0 3.930604,-1.41939 1.358727,-1.41938 1.358727,-4.12471 0,-2.69319 -1.358727,-4.10044 -1.346596,-1.40726 -3.930604,-1.40726 z m -4.2096286,-3.53026 h 4.440127 q 3.7122373,0 5.5198303,0.59444 1.819724,0.58231 3.117794,1.98957 1.152492,1.22528 1.71054,2.82664 0.558049,1.60135 0.558049,3.62731 0,2.05023 -0.558049,3.66371 -0.558048,1.60136 -1.71054,2.82664 -1.310202,1.40726 -3.142057,2.0017 -1.831856,0.58231 -5.4955673,0.58231 H 5.5104517 Z M 159.32567,-650.50049 v 6.3569 h 5.7018 v 2.86304 h -5.7018 v 6.3569 h -2.59614 v -6.3569 h -5.7018 v -2.86304 h 5.7018 v -6.3569 z m -34.84165,-2.53548 h 4.59784 l 3.71223,6.45395 3.71224,-6.45395 h 4.60997 l -6.21133,10.48161 v 7.63071 h -4.20963 v -7.63071 z m -7.60645,8.03105 q 1.3102,0 1.88038,-0.54592 0.58231,-0.54592 0.58231,-1.79546 0,-1.23741 -0.58231,-1.7712 -0.57018,-0.53378 -1.88038,-0.53378 h -1.7712 v 4.64636 z m -1.7712,3.22698 v 6.85429 h -4.20963 v -18.11232 h 6.41756 q 3.22698,0 4.71916,1.20102 1.5043,1.20101 1.5043,3.79715 0,1.79547 -0.77642,2.94796 -0.77641,1.15249 -2.35351,1.69841 0.86134,0.21836 1.5407,0.99478 0.6915,0.76428 1.383,2.32925 l 2.28072,5.14375 h -4.47653 l -1.97743,-4.50078 q -0.60657,-1.35873 -1.22528,-1.85612 -0.61871,-0.49739 -1.63775,-0.49739 z m -21.399949,-11.25803 h 15.018789 v 3.53026 h -5.39851 v 14.58206 h -4.209632 v -14.58206 h -5.410647 z m -1.746943,0 v 18.11232 H 80.373901 v -3.53027 h 7.38808 v -3.76076 h -7.38808 v -3.53026 h 7.38808 v -3.76077 h -7.38808 v -3.53026 z m -33.834734,0 h 5.349989 l 3.712237,9.69306 3.736501,-9.69306 h 5.337857 v 18.11232 h -3.97913 v -13.24759 l -3.748632,9.76585 h -2.668929 l -3.748631,-9.76585 v 13.24759 h -3.991262 z m -11.549184,3.05714 q -1.916776,0 -2.984347,1.57709 -1.05544,1.57709 -1.05544,4.44013 0,2.8509 1.05544,4.42799 1.067571,1.5771 2.984347,1.5771 1.928908,0 2.984348,-1.5771 1.067572,-1.57709 1.067572,-4.42799 0,-2.86304 -1.067572,-4.44013 -1.05544,-1.57709 -2.984348,-1.57709 z m 0,-3.38469 q 3.930605,0 6.150668,2.49909 2.232195,2.49908 2.232195,6.90282 0,4.3916 -2.232195,6.89069 -2.220063,2.49908 -6.150668,2.49908 -3.918472,0 -6.150667,-2.49908 -2.232195,-2.49909 -2.232195,-6.89069 0,-4.40374 2.232195,-6.90282 2.232195,-2.49909 6.150667,-2.49909 z m -22.722289,0.32755 h 11.342947 v 3.53026 H 28.0629 v 3.37256 h 6.708716 v 3.53026 H 28.0629 v 4.14897 h 7.375948 v 3.53027 H 23.853271 Z m -3.687974,16.76572 q -1.577094,0.84921 -3.275503,1.27381 -1.686278,0.4246 -3.481739,0.4246 -4.0761825,0 -6.4539554,-2.52335 -2.377773,-2.53548 -2.377773,-6.86642 0,-4.37947 2.4141674,-6.89069 2.4262989,-2.51122 6.648059,-2.51122 1.62562,0 3.117794,0.33968 1.492174,0.33968 2.814507,1.00691 v 3.74864 q -1.370859,-0.86134 -2.717455,-1.28594 -1.346596,-0.4246 -2.705323,-0.4246 -2.51122,0 -3.869947,1.56496 -1.3587273,1.55283 -1.3587273,4.45226 0,2.87516 1.3102013,4.44012 1.310201,1.56497 3.724369,1.56497 0.655101,0 1.213149,-0.0849 0.570181,-0.0971 1.006914,-0.29116 v -3.51813 H 13.61429 v -3.12993 h 6.551007 z m 71.879107,-44.09555 h 3.299766 l 8.03105,15.15223 v -15.15223 h 2.37777 v 18.11232 h -3.29976 l -8.031053,-15.15224 v 15.15224 h -2.377773 z m -12.204284,1.66201 q -2.668929,0 -4.246023,1.98957 -1.564963,1.98956 -1.564963,5.42277 0,3.42109 1.564963,5.41065 1.577094,1.98957 4.246023,1.98957 2.668929,0 4.22176,-1.98957 1.564963,-1.98956 1.564963,-5.41065 0,-3.43321 -1.564963,-5.42277 -1.552831,-1.98957 -4.22176,-1.98957 z m 0,-1.98956 q 3.80929,0 6.090011,2.55974 2.28072,2.54762 2.28072,6.84216 0,4.28242 -2.28072,6.84217 -2.280721,2.54761 -6.090011,2.54761 -3.82142,0 -6.114273,-2.54761 -2.280721,-2.54762 -2.280721,-6.84217 0,-4.29454 2.280721,-6.84216 2.292853,-2.55974 6.114273,-2.55974 z m -14.679108,0.32755 h 2.450561 v 18.11232 h -2.450561 z m -17.687722,0 h 15.322077 v 2.06235 h -6.429692 v 16.04997 h -2.462693 v -16.04997 H 47.47329 Z m -6.502479,2.41416 -3.32403,9.0137 h 6.660191 z m -1.38299,-2.41416 h 2.778112 l 6.90282,18.11232 h -2.547614 l -1.649883,-4.64636 H 36.90676 l -1.649883,4.64636 h -2.584008 z m -20.429438,0 H 34.48046 v 2.06235 h -6.429692 v 16.04997 h -2.462693 v -16.04997 h -6.429692 z m -2.402036,0.59444 v 2.3899 q -1.395122,-0.66723 -2.632534,-0.99478 -1.237413,-0.32755 -2.389905,-0.32755 -2.0016962,0 -3.0935307,0.77642 -1.079703,0.77641 -1.079703,2.20793 0,1.20102 0.7157582,1.81972 0.7278896,0.60658 2.7417175,0.98265 l 1.480043,0.30329 q 2.741717,0.52166 4.039787,1.84399 1.310202,1.3102 1.310202,3.51813 0,2.63254 -1.771199,3.99126 -1.759066,1.35873 -5.168016,1.35873 -1.2859387,0 -2.741718,-0.29115 -1.4436478,-0.29116 -2.9964791,-0.86134 v -2.52335 q 1.4921738,0.83707 2.9236901,1.26167 1.4315164,0.42461 2.814507,0.42461 2.098748,0 3.239109,-0.82495 1.14036,-0.82494 1.14036,-2.3535 0,-1.33447 -0.824941,-2.08662 -0.81281,-0.75215 -2.681061,-1.12823 l -1.492173,-0.29116 q -2.7417182,-0.54591 -3.9669991,-1.71054 -1.225281,-1.16462 -1.225281,-3.23911 0,-2.40203 1.6862777,-3.78502 1.6984093,-1.38299 4.6706254,-1.38299 1.273807,0 2.59614,0.2305 1.322333,0.23049 2.705323,0.69149 z m 103.942643,-27.92427 h 2.45056 v 7.42447 h 8.90452 v -7.42447 h 2.45056 v 18.11232 h -2.45056 v -8.6255 h -8.90452 v 8.6255 h -2.45056 z m -3.78503,1.39512 v 2.58401 q -1.23741,-1.1525 -2.64466,-1.72268 -1.39512,-0.57018 -2.97222,-0.57018 -3.10566,0 -4.75554,1.90465 -1.64989,1.89251 -1.64989,5.48343 0,3.57879 1.64989,5.48344 1.64988,1.89251 4.75554,1.89251 1.5771,0 2.97222,-0.57018 1.40725,-0.57018 2.64466,-1.72267 v 2.55975 q -1.28593,0.87346 -2.72958,1.3102 -1.43152,0.43673 -3.03288,0.43673 -4.11257,0 -6.47821,-2.51122 -2.36565,-2.52335 -2.36565,-6.87856 0,-4.36733 2.36565,-6.87855 2.36564,-2.52335 6.47821,-2.52335 1.62562,0 3.05714,0.43673 1.44365,0.4246 2.70532,1.28594 z m -20.999612,8.22515 q 0.788547,0.26689 1.528568,1.14036 0.752153,0.87347 1.504305,2.40204 l 2.486959,4.94965 h -2.632537 l -2.317115,-4.64637 q -0.897731,-1.81972 -1.746935,-2.41416 -0.837073,-0.59445 -2.292853,-0.59445 h -2.668929 v 7.65498 H 87.32525 v -18.11232 h 5.531961 q 3.105663,0 4.634231,1.29807 1.528568,1.29807 1.528568,3.91847 0,1.71054 -0.800678,2.83877 -0.788548,1.12823 -2.304984,1.56496 z m -6.138537,-7.60645 v 6.4297 h 3.0814 q 1.771198,0 2.668929,-0.81281 0.909862,-0.82495 0.909862,-2.41417 0,-1.58923 -0.909862,-2.38991 -0.897731,-0.81281 -2.668929,-0.81281 z m -13.393169,0.40034 -3.32403,9.0137 h 6.660191 z m -1.382991,-2.41416 h 2.778113 l 6.90282,18.11232 H 82.13297 l -1.649883,-4.64637 h -8.164496 l -1.649883,4.64637 H 68.0847 Z m -20.368779,0 h 11.45213 v 2.06235 h -9.001569 v 5.36212 h 8.625493 v 2.06235 h -8.625493 v 6.56314 h 9.219936 v 2.06236 H 54.630872 Z m -4.913256,0.59444 v 2.3899 q -1.395121,-0.66723 -2.632534,-0.99478 -1.237412,-0.32755 -2.389904,-0.32755 -2.001697,0 -3.093531,0.77642 -1.079703,0.77641 -1.079703,2.20793 0,1.20102 0.715758,1.81972 0.72789,0.60658 2.741718,0.98265 l 1.480042,0.30329 q 2.741718,0.52165 4.039788,1.84399 1.310201,1.3102 1.310201,3.51813 0,2.63254 -1.771198,3.99126 -1.759067,1.35873 -5.168017,1.35873 -1.285938,0 -2.741718,-0.29116 -1.443647,-0.29115 -2.996479,-0.86133 v -2.52335 q 1.492174,0.83707 2.92369,1.26167 1.431517,0.42461 2.814507,0.42461 2.098749,0 3.239109,-0.82495 1.140361,-0.82494 1.140361,-2.35351 0,-1.33446 -0.824942,-2.08661 -0.81281,-0.75216 -2.68106,-1.12823 l -1.492174,-0.29116 q -2.741718,-0.54592 -3.966999,-1.71054 -1.225281,-1.16462 -1.225281,-3.23911 0,-2.40203 1.686278,-3.78502 1.698409,-1.38299 4.670625,-1.38299 1.273807,0 2.59614,0.23049 1.322333,0.2305 2.705323,0.6915 z m -26.55584,-0.59444 h 11.452131 v 2.06235 h -9.001569 v 5.36212 h 8.625493 v 2.06235 h -8.625493 v 6.56314 h 9.219936 v 2.06236 H 23.161776 Z m -8.674018,9.62027 q 0.788547,0.26689 1.528568,1.14036 0.752153,0.87347 1.504305,2.40204 l 2.486957,4.94965 h -2.632535 l -2.317115,-4.64637 q -0.897731,-1.81972 -1.746935,-2.41416 -0.837073,-0.59445 -2.292853,-0.59445 H 8.3492214 v 7.65498 H 5.8986595 v -18.11232 h 5.5319615 q 3.105663,0 4.634231,1.29807 1.528568,1.29807 1.528568,3.91847 0,1.71054 -0.800678,2.83877 -0.788548,1.12823 -2.304984,1.56496 z m -6.1385366,-7.60645 v 6.4297 h 3.0813996 q 1.771198,0 2.668929,-0.81281 0.909862,-0.82495 0.909862,-2.41417 0,-1.58923 -0.909862,-2.38991 -0.897731,-0.81281 -2.668929,-0.81281 z" />
        </g>
      </g>
      <g
         id="g271"
         transform="matrix(2.3700527,0,0,-2.3711637,-421.09407,1833.5692)">
        <g
           id="g58">
          <g
             id="g60"
             clip-path="url(#clipPath64)">
            <path
               d="m 315.553,635.552 h 0.27 v 89.267 h -0.27 z"
               style="fill:#231f20;fill-opacity:1;fill-rule:nonzero;stroke:none"
               id="path66" />
          </g>
        </g>
      </g>
    </g>
  </g>
</svg>
